<?xml version="1.0" encoding="UTF-8" standalone="no"?>
<!DOCTYPE svg PUBLIC "-//W3C//DTD SVG 1.1//EN"
 "http://www.w3.org/Graphics/SVG/1.1/DTD/svg11.dtd">
<!-- Generated by graphviz version 2.47.0 (20210316.0004)
 -->
<!-- Title: dependencies Pages: 1 -->
<svg width="888pt" height="284pt"
 viewBox="0.00 0.00 888.00 284.00" xmlns="http://www.w3.org/2000/svg" xmlns:xlink="http://www.w3.org/1999/xlink">
<g id="graph0" class="graph" transform="scale(1 1) rotate(0) translate(4 280)">
<title>dependencies</title>
<polygon fill="white" stroke="transparent" points="-4,4 -4,-280 884,-280 884,4 -4,4"/>
<text text-anchor="start" x="419.01" y="-42.4" font-family="Times-12" font-weight="bold" font-size="14.00">Legend</text>
<polygon fill="#ffffb3" stroke="transparent" points="206,-10 206,-30 226,-30 226,-10 206,-10"/>
<text text-anchor="start" x="229.63" y="-15.4" font-family="Times-12" font-size="14.00"> &#160;Declarations</text>
<polygon fill="#8dd3c7" stroke="transparent" points="319,-10 319,-30 339,-30 339,-10 319,-10"/>
<text text-anchor="start" x="342.73" y="-15.4" font-family="Times-12" font-size="14.00"> &#160;Module</text>
<polygon fill="#80b1d3" stroke="transparent" points="405,-10 405,-30 425,-30 425,-10 405,-10"/>
<text text-anchor="start" x="428.78" y="-15.4" font-family="Times-12" font-size="14.00"> &#160;Bootstrap</text>
<polygon fill="#fdb462" stroke="transparent" points="502,-10 502,-30 522,-30 522,-10 502,-10"/>
<text text-anchor="start" x="525.67" y="-15.4" font-family="Times-12" font-size="14.00"> &#160;Providers</text>
<polygon fill="#fb8072" stroke="transparent" points="598,-10 598,-30 618,-30 618,-10 598,-10"/>
<text text-anchor="start" x="621.73" y="-15.4" font-family="Times-12" font-size="14.00"> &#160;Exports</text>
<g id="clust1" class="cluster">
<title>cluster_VetsModule</title>
<polygon fill="none" stroke="black" stroke-dasharray="1,5" points="8,-70 8,-268 872,-268 872,-70 8,-70"/>
</g>
<g id="clust7" class="cluster">
<title>cluster_VetsModule_exports</title>
<polygon fill="none" stroke="black" points="215,-208 215,-260 652,-260 652,-208 215,-208"/>
</g>
<g id="clust2" class="cluster">
<title>cluster_VetsModule_declarations</title>
<polygon fill="none" stroke="black" points="438,-78 438,-130 864,-130 864,-78 438,-78"/>
</g>
<g id="clust6" class="cluster">
<title>cluster_VetsModule_imports</title>
<polygon fill="none" stroke="black" points="284,-78 284,-130 430,-130 430,-78 284,-78"/>
</g>
<g id="clust9" class="cluster">
<title>cluster_VetsModule_providers</title>
<polygon fill="none" stroke="black" points="16,-78 16,-130 276,-130 276,-78 16,-78"/>
</g>
<!-- VetAddComponent -->
<g id="node1" class="node">
<title>VetAddComponent</title>
<polygon fill="#ffffb3" stroke="black" points="855.65,-122 730.35,-122 730.35,-86 855.65,-86 855.65,-122"/>
<text text-anchor="middle" x="793" y="-99.8" font-family="Times,serif" font-size="14.00">VetAddComponent</text>
</g>
<!-- VetsModule -->
<g id="node4" class="node">
<title>VetsModule</title>
<polygon fill="#8dd3c7" stroke="black" points="474.71,-187 471.71,-191 450.71,-191 447.71,-187 389.29,-187 389.29,-151 474.71,-151 474.71,-187"/>
<text text-anchor="middle" x="432" y="-164.8" font-family="Times,serif" font-size="14.00">VetsModule</text>
</g>
<!-- VetAddComponent&#45;&gt;VetsModule -->
<g id="edge1" class="edge">
<title>VetAddComponent&#45;&gt;VetsModule</title>
<path fill="none" stroke="black" d="M793,-122.11C793,-141.34 793,-169 793,-169 793,-169 484.83,-169 484.83,-169"/>
<polygon fill="black" stroke="black" points="484.83,-165.5 474.83,-169 484.83,-172.5 484.83,-165.5"/>
</g>
<!-- VetEditComponent -->
<g id="node2" class="node">
<title>VetEditComponent</title>
<polygon fill="#ffffb3" stroke="black" points="712.38,-122 587.62,-122 587.62,-86 712.38,-86 712.38,-122"/>
<text text-anchor="middle" x="650" y="-99.8" font-family="Times,serif" font-size="14.00">VetEditComponent</text>
</g>
<!-- VetEditComponent&#45;&gt;VetsModule -->
<g id="edge2" class="edge">
<title>VetEditComponent&#45;&gt;VetsModule</title>
<path fill="none" stroke="black" d="M615.57,-122.03C615.57,-138.4 615.57,-160 615.57,-160 615.57,-160 485.04,-160 485.04,-160"/>
<polygon fill="black" stroke="black" points="485.04,-156.5 475.04,-160 485.04,-163.5 485.04,-156.5"/>
</g>
<!-- VetListComponent -->
<g id="node3" class="node">
<title>VetListComponent</title>
<polygon fill="#ffffb3" stroke="black" points="569.82,-122 446.18,-122 446.18,-86 569.82,-86 569.82,-122"/>
<text text-anchor="middle" x="508" y="-99.8" font-family="Times,serif" font-size="14.00">VetListComponent</text>
</g>
<!-- VetListComponent&#45;&gt;VetsModule -->
<g id="edge3" class="edge">
<title>VetListComponent&#45;&gt;VetsModule</title>
<path fill="none" stroke="black" d="M460.47,-122.11C460.47,-122.11 460.47,-140.99 460.47,-140.99"/>
<polygon fill="black" stroke="black" points="456.97,-140.99 460.47,-150.99 463.97,-140.99 456.97,-140.99"/>
</g>
<!-- VetAddComponent  -->
<g id="node6" class="node">
<title>VetAddComponent </title>
<polygon fill="#fb8072" stroke="black" points="643.65,-252 514.35,-252 514.35,-216 643.65,-216 643.65,-252"/>
<text text-anchor="middle" x="579" y="-229.8" font-family="Times,serif" font-size="14.00">VetAddComponent </text>
</g>
<!-- VetsModule&#45;&gt;VetAddComponent  -->
<g id="edge5" class="edge">
<title>VetsModule&#45;&gt;VetAddComponent </title>
<path fill="none" stroke="black" stroke-dasharray="5,2" d="M474.86,-178C505.76,-178 542.04,-178 542.04,-178 542.04,-178 542.04,-205.97 542.04,-205.97"/>
<polygon fill="black" stroke="black" points="538.54,-205.97 542.04,-215.97 545.54,-205.97 538.54,-205.97"/>
</g>
<!-- VetEditComponent  -->
<g id="node7" class="node">
<title>VetEditComponent </title>
<polygon fill="#fb8072" stroke="black" points="496.38,-252 367.62,-252 367.62,-216 496.38,-216 496.38,-252"/>
<text text-anchor="middle" x="432" y="-229.8" font-family="Times,serif" font-size="14.00">VetEditComponent </text>
</g>
<!-- VetsModule&#45;&gt;VetEditComponent  -->
<g id="edge6" class="edge">
<title>VetsModule&#45;&gt;VetEditComponent </title>
<path fill="none" stroke="black" stroke-dasharray="5,2" d="M432,-187.11C432,-187.11 432,-205.99 432,-205.99"/>
<polygon fill="black" stroke="black" points="428.5,-205.99 432,-215.99 435.5,-205.99 428.5,-205.99"/>
</g>
<!-- VetListComponent  -->
<g id="node8" class="node">
<title>VetListComponent </title>
<polygon fill="#fb8072" stroke="black" points="349.32,-252 222.68,-252 222.68,-216 349.32,-216 349.32,-252"/>
<text text-anchor="middle" x="286" y="-229.8" font-family="Times,serif" font-size="14.00">VetListComponent </text>
</g>
<!-- VetsModule&#45;&gt;VetListComponent  -->
<g id="edge7" class="edge">
<title>VetsModule&#45;&gt;VetListComponent </title>
<path fill="none" stroke="black" stroke-dasharray="5,2" d="M389.26,-178C357.85,-178 320.62,-178 320.62,-178 320.62,-178 320.62,-205.97 320.62,-205.97"/>
<polygon fill="black" stroke="black" points="317.12,-205.97 320.62,-215.97 324.12,-205.97 317.12,-205.97"/>
</g>
<!-- VetsRoutingModule -->
<g id="node5" class="node">
<title>VetsRoutingModule</title>
<polygon fill="#8dd3c7" stroke="black" points="422.32,-122 419.32,-126 398.32,-126 395.32,-122 291.68,-122 291.68,-86 422.32,-86 422.32,-122"/>
<text text-anchor="middle" x="357" y="-99.8" font-family="Times,serif" font-size="14.00">VetsRoutingModule</text>
</g>
<!-- VetsRoutingModule&#45;&gt;VetsModule -->
<g id="edge4" class="edge">
<title>VetsRoutingModule&#45;&gt;VetsModule</title>
<path fill="none" stroke="black" d="M405.78,-122.11C405.78,-122.11 405.78,-140.99 405.78,-140.99"/>
<polygon fill="black" stroke="black" points="402.28,-140.99 405.78,-150.99 409.28,-140.99 402.28,-140.99"/>
</g>
<!-- VetResolver -->
<g id="node9" class="node">
<title>VetResolver</title>
<ellipse fill="#fdb462" stroke="black" cx="209" cy="-104" rx="59.11" ry="18"/>
<text text-anchor="middle" x="209" y="-99.8" font-family="Times,serif" font-size="14.00">VetResolver</text>
</g>
<!-- VetResolver&#45;&gt;VetsModule -->
<g id="edge8" class="edge">
<title>VetResolver&#45;&gt;VetsModule</title>
<path fill="none" stroke="black" d="M245.45,-118.42C245.45,-135.01 245.45,-160 245.45,-160 245.45,-160 379.2,-160 379.2,-160"/>
<polygon fill="black" stroke="black" points="379.2,-163.5 389.2,-160 379.2,-156.5 379.2,-163.5"/>
</g>
<!-- VetService -->
<g id="node10" class="node">
<title>VetService</title>
<ellipse fill="#fdb462" stroke="black" cx="78" cy="-104" rx="53.87" ry="18"/>
<text text-anchor="middle" x="78" y="-99.8" font-family="Times,serif" font-size="14.00">VetService</text>
</g>
<!-- VetService&#45;&gt;VetsModule -->
<g id="edge9" class="edge">
<title>VetService&#45;&gt;VetsModule</title>
<path fill="none" stroke="black" d="M78,-122.11C78,-141.34 78,-169 78,-169 78,-169 379.3,-169 379.3,-169"/>
<polygon fill="black" stroke="black" points="379.3,-172.5 389.3,-169 379.3,-165.5 379.3,-172.5"/>
</g>
</g>
</svg>
