<?xml version="1.0" encoding="UTF-8" standalone="no"?>
<!DOCTYPE svg PUBLIC "-//W3C//DTD SVG 1.1//EN"
 "http://www.w3.org/Graphics/SVG/1.1/DTD/svg11.dtd">
<!-- Generated by graphviz version 2.47.0 (20210316.0004)
 -->
<!-- Title: dependencies Pages: 1 -->
<svg width="1121pt" height="211pt"
 viewBox="0.00 0.00 1121.00 211.00" xmlns="http://www.w3.org/2000/svg" xmlns:xlink="http://www.w3.org/1999/xlink">
<g id="graph0" class="graph" transform="scale(1 1) rotate(0) translate(4 207)">
<title>dependencies</title>
<polygon fill="white" stroke="transparent" points="-4,4 -4,-207 1117,-207 1117,4 -4,4"/>
<text text-anchor="start" x="535.51" y="-42.4" font-family="Times-12" font-weight="bold" font-size="14.00">Legend</text>
<polygon fill="#ffffb3" stroke="transparent" points="322.5,-10 322.5,-30 342.5,-30 342.5,-10 322.5,-10"/>
<text text-anchor="start" x="346.13" y="-15.4" font-family="Times-12" font-size="14.00"> &#160;Declarations</text>
<polygon fill="#8dd3c7" stroke="transparent" points="435.5,-10 435.5,-30 455.5,-30 455.5,-10 435.5,-10"/>
<text text-anchor="start" x="459.23" y="-15.4" font-family="Times-12" font-size="14.00"> &#160;Module</text>
<polygon fill="#80b1d3" stroke="transparent" points="521.5,-10 521.5,-30 541.5,-30 541.5,-10 521.5,-10"/>
<text text-anchor="start" x="545.28" y="-15.4" font-family="Times-12" font-size="14.00"> &#160;Bootstrap</text>
<polygon fill="#fdb462" stroke="transparent" points="618.5,-10 618.5,-30 638.5,-30 638.5,-10 618.5,-10"/>
<text text-anchor="start" x="642.17" y="-15.4" font-family="Times-12" font-size="14.00"> &#160;Providers</text>
<polygon fill="#fb8072" stroke="transparent" points="714.5,-10 714.5,-30 734.5,-30 734.5,-10 714.5,-10"/>
<text text-anchor="start" x="738.23" y="-15.4" font-family="Times-12" font-size="14.00"> &#160;Exports</text>
<g id="clust1" class="cluster">
<title>cluster_OwnersModule</title>
<polygon fill="none" stroke="black" stroke-dasharray="1,5" points="8,-70 8,-195 1105,-195 1105,-70 8,-70"/>
</g>
<g id="clust7" class="cluster">
<title>cluster_OwnersModule_imports</title>
<polygon fill="none" stroke="black" points="832,-78 832,-130 1097,-130 1097,-78 832,-78"/>
</g>
<g id="clust2" class="cluster">
<title>cluster_OwnersModule_declarations</title>
<polygon fill="none" stroke="black" points="172,-78 172,-130 824,-130 824,-78 172,-78"/>
</g>
<g id="clust10" class="cluster">
<title>cluster_OwnersModule_providers</title>
<polygon fill="none" stroke="black" points="16,-78 16,-130 164,-130 164,-78 16,-78"/>
</g>
<!-- OwnerAddComponent -->
<g id="node1" class="node">
<title>OwnerAddComponent</title>
<polygon fill="#ffffb3" stroke="black" points="815.53,-122 672.47,-122 672.47,-86 815.53,-86 815.53,-122"/>
<text text-anchor="middle" x="744" y="-99.8" font-family="Times,serif" font-size="14.00">OwnerAddComponent</text>
</g>
<!-- OwnersModule -->
<g id="node5" class="node">
<title>OwnersModule</title>
<polygon fill="#8dd3c7" stroke="black" points="628.58,-187 625.58,-191 604.58,-191 601.58,-187 525.42,-187 525.42,-151 628.58,-151 628.58,-187"/>
<text text-anchor="middle" x="577" y="-164.8" font-family="Times,serif" font-size="14.00">OwnersModule</text>
</g>
<!-- OwnerAddComponent&#45;&gt;OwnersModule -->
<g id="edge1" class="edge">
<title>OwnerAddComponent&#45;&gt;OwnersModule</title>
<path fill="none" stroke="black" d="M744,-122.03C744,-138.4 744,-160 744,-160 744,-160 638.92,-160 638.92,-160"/>
<polygon fill="black" stroke="black" points="638.92,-156.5 628.92,-160 638.92,-163.5 638.92,-156.5"/>
</g>
<!-- OwnerDetailComponent -->
<g id="node2" class="node">
<title>OwnerDetailComponent</title>
<polygon fill="#ffffb3" stroke="black" points="653.63,-122 500.37,-122 500.37,-86 653.63,-86 653.63,-122"/>
<text text-anchor="middle" x="577" y="-99.8" font-family="Times,serif" font-size="14.00">OwnerDetailComponent</text>
</g>
<!-- OwnerDetailComponent&#45;&gt;OwnersModule -->
<g id="edge2" class="edge">
<title>OwnerDetailComponent&#45;&gt;OwnersModule</title>
<path fill="none" stroke="black" d="M577,-122.11C577,-122.11 577,-140.99 577,-140.99"/>
<polygon fill="black" stroke="black" points="573.5,-140.99 577,-150.99 580.5,-140.99 573.5,-140.99"/>
</g>
<!-- OwnerEditComponent -->
<g id="node3" class="node">
<title>OwnerEditComponent</title>
<polygon fill="#ffffb3" stroke="black" points="482.25,-122 339.75,-122 339.75,-86 482.25,-86 482.25,-122"/>
<text text-anchor="middle" x="411" y="-99.8" font-family="Times,serif" font-size="14.00">OwnerEditComponent</text>
</g>
<!-- OwnerEditComponent&#45;&gt;OwnersModule -->
<g id="edge3" class="edge">
<title>OwnerEditComponent&#45;&gt;OwnersModule</title>
<path fill="none" stroke="black" d="M411,-122.03C411,-138.4 411,-160 411,-160 411,-160 515.39,-160 515.39,-160"/>
<polygon fill="black" stroke="black" points="515.39,-163.5 525.39,-160 515.39,-156.5 515.39,-163.5"/>
</g>
<!-- OwnerListComponent -->
<g id="node4" class="node">
<title>OwnerListComponent</title>
<polygon fill="#ffffb3" stroke="black" points="321.7,-122 180.3,-122 180.3,-86 321.7,-86 321.7,-122"/>
<text text-anchor="middle" x="251" y="-99.8" font-family="Times,serif" font-size="14.00">OwnerListComponent</text>
</g>
<!-- OwnerListComponent&#45;&gt;OwnersModule -->
<g id="edge4" class="edge">
<title>OwnerListComponent&#45;&gt;OwnersModule</title>
<path fill="none" stroke="black" d="M251,-122.11C251,-141.34 251,-169 251,-169 251,-169 515.34,-169 515.34,-169"/>
<polygon fill="black" stroke="black" points="515.34,-172.5 525.34,-169 515.34,-165.5 515.34,-172.5"/>
</g>
<!-- OwnersRoutingModule -->
<g id="node6" class="node">
<title>OwnersRoutingModule</title>
<polygon fill="#8dd3c7" stroke="black" points="1089.2,-122 1086.2,-126 1065.2,-126 1062.2,-122 940.8,-122 940.8,-86 1089.2,-86 1089.2,-122"/>
<text text-anchor="middle" x="1015" y="-99.8" font-family="Times,serif" font-size="14.00">OwnersRoutingModule</text>
</g>
<!-- OwnersRoutingModule&#45;&gt;OwnersModule -->
<g id="edge5" class="edge">
<title>OwnersRoutingModule&#45;&gt;OwnersModule</title>
<path fill="none" stroke="black" d="M1015,-122.29C1015,-144.21 1015,-178 1015,-178 1015,-178 638.96,-178 638.96,-178"/>
<polygon fill="black" stroke="black" points="638.96,-174.5 628.96,-178 638.96,-181.5 638.96,-174.5"/>
</g>
<!-- PetsModule -->
<g id="node7" class="node">
<title>PetsModule</title>
<polygon fill="#8dd3c7" stroke="black" points="922.38,-122 919.38,-126 898.38,-126 895.38,-122 839.62,-122 839.62,-86 922.38,-86 922.38,-122"/>
<text text-anchor="middle" x="881" y="-99.8" font-family="Times,serif" font-size="14.00">PetsModule</text>
</g>
<!-- PetsModule&#45;&gt;OwnersModule -->
<g id="edge6" class="edge">
<title>PetsModule&#45;&gt;OwnersModule</title>
<path fill="none" stroke="black" d="M881,-122.11C881,-141.34 881,-169 881,-169 881,-169 638.57,-169 638.57,-169"/>
<polygon fill="black" stroke="black" points="638.57,-165.5 628.57,-169 638.57,-172.5 638.57,-165.5"/>
</g>
<!-- OwnerService -->
<g id="node8" class="node">
<title>OwnerService</title>
<ellipse fill="#fdb462" stroke="black" cx="90" cy="-104" rx="66.03" ry="18"/>
<text text-anchor="middle" x="90" y="-99.8" font-family="Times,serif" font-size="14.00">OwnerService</text>
</g>
<!-- OwnerService&#45;&gt;OwnersModule -->
<g id="edge7" class="edge">
<title>OwnerService&#45;&gt;OwnersModule</title>
<path fill="none" stroke="black" d="M90,-122.29C90,-144.21 90,-178 90,-178 90,-178 515.34,-178 515.34,-178"/>
<polygon fill="black" stroke="black" points="515.34,-181.5 525.34,-178 515.34,-174.5 515.34,-181.5"/>
</g>
</g>
</svg>
